<?xml version="1.0" encoding="UTF-8"?>
<svg width="116" height="20" aria-label="repo status: Active" role="img" version="1.1" xmlns="http://www.w3.org/2000/svg" xmlns:cc="http://creativecommons.org/ns#" xmlns:dc="http://purl.org/dc/elements/1.1/" xmlns:rdf="http://www.w3.org/1999/02/22-rdf-syntax-ns#">
 <defs>
  <clipPath id="clipPath1181">
   <rect width="116" height="20" rx="3" ry="3" fill="#fff"/>
  </clipPath>
  <clipPath id="clipPath1187">
   <rect width="116" height="20" rx="3" ry="3" fill="#fff"/>
  </clipPath>
  <clipPath id="clipPath1193">
   <rect width="116" height="20" rx="3" ry="3" fill="#fff"/>
  </clipPath>
  <clipPath id="clipPath1187-1">
   <rect width="116" height="20" rx="3" ry="3" fill="#fff"/>
  </clipPath>
 </defs>
 <title>repo status: Active</title>
 <linearGradient id="s" x2="0" y2="48.166" gradientTransform="matrix(2.4083 0 0 .41523 .10536 .012344)" gradientUnits="userSpaceOnUse">
  <stop stop-color="#bbb" stop-opacity=".1" offset="0"/>
  <stop stop-opacity=".1" offset="1"/>
 </linearGradient>
 <rect width="73" height="20" clip-path="url(#clipPath1193)" fill="#555"/>
 <rect transform="matrix(1.5512 0 0 1 -63.977 .057219)" x="73" width="43" height="20" clip-path="url(#clipPath1187-1)"/>
 <rect transform="matrix(1.0318 0 0 1 -26.03 .1513)" x="73" width="43" height="20" clip-path="url(#clipPath1187)" fill="#c8ab37"/>
 <text x="3.2374671" y="9.2642479" fill="#ffffff" font-family="sans-serif" font-size="8px" letter-spacing="0px" stroke-width="1px" word-spacing="0px" style="line-height:7.1px" xml:space="preserve"><tspan x="3.2374671" y="9.2642479">technology</tspan><tspan x="3.2374671" y="16.364248">readiness</tspan></text>
 <g fill="none" stroke="#343434" stroke-width="1px">
  <path d="m55.869 0.3161v19.18" opacity=".61268"/>
  <path d="m62.459 0.38583v19.18" opacity=".61268"/>
  <path d="m68.746 0.37653v19.18" opacity=".61268"/>
  <path d="m75.215 0.4234v19.18" opacity=".61268"/>
  <path d="m81.508 0.42544v19.18" opacity=".61268"/>
  <path d="m88.053 0.30352v19.18" opacity=".61268"/>
  <path d="m94.274 0.39082v19.18" opacity=".61268"/>
  <path d="m107.36 0.40135v19.18" opacity=".61268"/>
  <path d="m100.74 0.37829v19.18" opacity=".61268"/>
 </g>
 <rect transform="translate(-.10536 -.012344)" width="116" height="20" clip-path="url(#clipPath1181)" fill="url(#s)"/>
 <metadata>
  <rdf:RDF>
   <cc:Work rdf:about="">
    <dc:title>repo status: Active</dc:title>
   </cc:Work>
  </rdf:RDF>
 </metadata>
</svg>
