<svg xmlns="http://www.w3.org/2000/svg" viewBox="0 0 146 36" style="width: 160px;"><path d="M18 0C14.4399 0 10.9598 1.05568 7.99974 3.03355C5.03966 5.01141 2.73255 7.82263 1.37018 11.1117C0.00780024 14.4008 -0.348661 18.02 0.345873 21.5116C1.04041 25.0033 2.75474 28.2106 5.27208 30.7279C7.78943 33.2453 10.9967 34.9596 14.4884 35.6541C17.98 36.3487 21.5992 35.9922 24.8883 34.6298C28.1774 33.2674 30.9886 30.9603 32.9665 28.0003C34.9443 25.0402 36 21.5601 36 18C36 13.2261 34.1036 8.64773 30.7279 5.27208C27.3523 1.89642 22.7739 0 18 0ZM24.1314 30.2457L11.2971 23.5543L20.9543 18.5257L24.1314 20.1771V30.2457ZM24.1314 15.1543L10.2457 22.3543V12.9543L24.1314 5.73143V15.1543Z" fill="#FFFFFF"></path><path d="M65.7771 22.2914C64.7886 26.0286 61.4629 28.7086 56.5943 28.7086C50.1829 28.7086 46.2457 24.1886 46.2457 18.0686C46.2457 11.9486 50.1829 7.42859 56.5943 7.42859C61.4629 7.42859 64.4686 9.96002 65.6343 13.4H60.4457C59.8743 12.1486 58.7314 11.2743 56.5943 11.2743C52.6572 11.2743 50.88 14.4229 50.88 18.0686C50.88 21.7143 52.6286 24.8572 56.5943 24.8572C59.0457 24.8572 60.24 23.6629 60.6743 22.2914H65.7771Z" fill="#FFFFFF"></path><path d="M68.1714 7.86292H72.6V28.2686H68.1714V7.86292Z" fill="#FFFFFF"></path><path d="M75.8971 17.3372C76.4171 14.3372 79.0457 12.6743 82.9771 12.6743C86.9086 12.6743 90.0628 14.1315 90.0628 18.2115V28.2686H85.6343V26.6686C84.76 27.8115 83.3486 28.7086 80.7029 28.7086C77.6457 28.7086 75.1657 26.96 75.1657 23.6057C75.1657 20.6915 77.4971 19.1143 80.9943 18.7943L85.6343 18.36V18.2115C85.6343 16.7543 85.1086 15.88 82.9771 15.88C81.2629 15.88 80.5886 16.4915 80.44 17.3372H75.8971ZM85.6114 21.7086V21.2743L81.4686 21.7086C80.0971 21.8572 79.5714 22.5886 79.5714 23.6057C79.5714 24.7486 80.3314 25.5029 81.7029 25.5029C83.96 25.5029 85.6343 24.1886 85.6343 21.7086H85.6114Z" fill="#FFFFFF"></path><path d="M101.257 16.6114C99.2171 16.6114 97.9028 17.4857 97.9028 20.1085V28.2685H93.4742V13.1028H97.9028V14.8514C98.6342 13.5428 99.8 12.8114 102.28 12.8114H103.297V16.6057L101.257 16.6114Z" fill="#FFFFFF"></path><path d="M105.457 7.86292H109.886V11.3886H105.457V7.86292ZM105.457 13.1086H109.886V28.2686H105.457V13.1086Z" fill="#FFFFFF"></path><path d="M113.183 17.3372C113.709 14.3372 116.331 12.6743 120.263 12.6743C124.194 12.6743 127.349 14.1315 127.349 18.2115V28.2686H122.92V26.6686C122.046 27.8115 120.634 28.7086 117.989 28.7086C114.931 28.7086 112.451 26.96 112.451 23.6057C112.451 20.6915 114.783 19.1143 118.28 18.7943L122.92 18.36V18.2115C122.92 16.7543 122.394 15.88 120.263 15.88C118.549 15.88 117.874 16.4915 117.731 17.3372H113.183ZM122.897 21.7086V21.2743L118.754 21.7086C117.383 21.8572 116.863 22.5886 116.863 23.6057C116.863 24.7486 117.617 25.5029 118.989 25.5029C121.229 25.5029 122.92 24.1886 122.92 21.7086H122.897Z" fill="#FFFFFF"></path><path d="M135.189 14.7143C135.738 14.0406 136.438 13.505 137.232 13.1508C138.026 12.7965 138.892 12.6333 139.76 12.6743C143.606 12.6743 145.994 15.0058 145.994 19.0858V28.2686H141.566V19.3886C141.566 17.4972 140.72 16.3315 138.737 16.3315C136.611 16.3315 135.177 17.7886 135.177 20.2629V28.2629H130.76V7.86292H135.189V14.7143Z" fill="#FFFFFF"></path></svg>